<?xml version="1.0" standalone="no"?>
<!DOCTYPE svg PUBLIC "-//W3C//DTD SVG 20010904//EN"
 "http://www.w3.org/TR/2001/REC-SVG-20010904/DTD/svg10.dtd">
<svg version="1.0" xmlns="http://www.w3.org/2000/svg"
 width="51.000000pt" height="52.000000pt" viewBox="0 0 425.000000 430.000000"
 preserveAspectRatio="xMidYMid meet">

<g transform="translate(0.000000,512.000000) scale(0.100000,-0.100000)"
fill="#000000" stroke="none">
<path d="M1555 3290 c-189 -9 -365 -35 -475 -69 -75 -24 -151 -78 -290 -208
-139 -129 -146 -133 -227 -133 -73 0 -229 -22 -278 -40 -25 -9 -37 -26 -74
-108 -50 -111 -57 -150 -43 -219 28 -129 86 -233 152 -273 43 -26 45 -31 55
-119 12 -107 65 -208 136 -257 50 -34 110 -44 221 -34 102 8 141 31 191 112
16 26 35 48 41 48 6 0 324 -43 706 -96 545 -75 697 -99 705 -111 90 -140 138
-187 226 -219 53 -19 309 -21 369 -3 53 16 129 76 165 129 l30 45 195 -4 195
-3 26 -31 26 -31 364 32 c419 37 811 80 821 90 4 4 8 38 9 75 1 37 6 70 11 73
4 3 26 32 48 64 29 42 49 61 75 70 32 10 64 45 52 56 -2 3 -57 -2 -121 -11
-64 -8 -145 -15 -179 -16 -47 0 -57 -3 -42 -10 16 -7 13 -8 -13 -4 -18 2 -137
0 -265 -5 -127 -5 -355 -12 -506 -15 -252 -5 -275 -4 -293 12 -23 21 -50 81
-42 94 10 17 90 10 117 -11 19 -15 40 -20 84 -20 l58 0 -31 19 c-82 50 -87
226 -8 278 17 11 37 13 71 9 76 -10 83 -10 393 -4 l295 6 -305 -13 c-168 -7
-306 -13 -306 -14 -1 0 7 -18 18 -38 15 -30 18 -51 15 -97 -3 -32 -11 -63 -17
-70 -9 -8 -11 -5 -5 14 6 21 3 19 -16 -9 -68 -98 -191 -30 -176 97 12 112 116
150 174 63 13 -19 23 -30 23 -25 0 13 -30 56 -50 71 -25 20 -83 16 -109 -8
-66 -61 -66 -177 0 -238 33 -31 89 -28 123 5 14 15 26 22 26 16 0 -8 87 -13
303 -15 l302 -2 -310 -3 c-278 -2 -312 -4 -333 -20 -22 -17 -6 -18 385 -17
319 1 434 5 530 17 167 23 202 33 213 64 5 13 20 28 33 33 28 11 47 68 54 156
12 173 -113 227 -722 310 -143 19 -296 46 -340 59 -44 13 -100 26 -125 30 -29
3 -15 -3 40 -18 226 -63 191 -67 -50 -6 -107 27 -184 49 -171 50 51 0 10 9
-134 29 -199 27 -326 31 -655 20 -151 -5 -349 -12 -440 -15 -91 -2 -219 -9
-285 -14 -66 -5 -141 -10 -166 -10 l-46 0 -42 128 c-23 70 -50 161 -60 202
l-19 75 27 9 c14 5 240 9 501 10 277 0 454 4 425 9 -72 11 -1046 17 -1260 7z
m273 -92 c6 -34 30 -130 53 -215 23 -84 40 -156 37 -158 -3 -3 -187 -8 -409
-11 l-404 -7 -120 42 c-66 23 -124 46 -128 50 -13 13 201 224 271 269 117 75
189 88 508 91 l180 1 12 -62z m-582 -513 c18 -13 16 -14 -24 -15 -23 0 -53 -7
-66 -15 -22 -14 -25 -14 -40 0 -33 33 -19 45 54 45 34 0 64 -6 76 -15z m1677
-5 c135 -13 255 -39 415 -91 140 -46 178 -72 168 -117 -3 -15 -11 -55 -18 -89
l-11 -63 -85 0 -85 0 7 101 6 100 -47 21 c-26 11 -97 31 -159 43 -270 55 -629
75 -1374 75 -414 0 -472 2 -454 14 11 8 38 17 60 19 74 9 1469 -2 1577 -13z
m-1793 -69 c0 -23 -16 -36 -25 -21 -9 14 1 40 15 40 5 0 10 -9 10 -19z m-275
-121 c4 -6 -15 -10 -49 -10 -30 0 -58 5 -61 10 -4 6 15 10 49 10 30 0 58 -4
61 -10z m4045 -27 c64 -60 64 -203 -1 -258 -17 -14 -40 -25 -51 -25 -43 0 -98
87 -98 155 0 69 55 155 99 155 11 0 34 -12 51 -27z m-4300 -8 c123 -64 150
-420 40 -532 -109 -112 -234 31 -233 267 0 110 24 190 73 242 41 42 71 48 120
23z m1476 -87 c-9 -5 -16 -19 -16 -31 1 -20 2 -21 14 -4 17 22 96 24 96 2 0
-11 -13 -15 -47 -16 -34 -2 -39 -3 -18 -6 44 -7 56 -23 16 -23 -47 0 -71 16
-71 48 0 31 18 55 33 45 5 -3 2 -10 -7 -15z m2441 -12 c-3 -7 -1 -18 5 -24 11
-11 3 -32 -11 -32 -9 0 -12 50 -4 63 7 13 15 8 10 -7z m-50 -3 c-17 -4 -17 -5
-1 -17 21 -16 10 -36 -19 -35 -17 1 -18 2 -4 6 21 6 22 19 1 27 -21 8 -8 26
19 25 18 -1 19 -2 4 -6z m-1659 -62 c61 -31 110 -86 146 -160 27 -57 31 -79
34 -161 3 -78 0 -105 -18 -152 -81 -217 -302 -266 -452 -99 -165 184 -110 509
101 588 48 18 137 10 189 -16z m556 -9 c-1 -24 1 -25 31 -12 11 5 14 9 8 9
-18 1 -16 31 2 31 8 0 14 -3 14 -7 -4 -22 2 -25 15 -8 17 24 50 13 43 -15 -3
-11 -2 -20 3 -20 7 0 34 -150 28 -155 -2 -2 -40 -6 -84 -10 -93 -8 -86 -15
-99 98 -7 51 -5 57 11 57 16 0 17 2 4 10 -10 6 -11 10 -2 10 14 0 12 21 -3 33
-6 5 -1 7 10 5 13 -3 20 -11 19 -26z m-74 -2 c0 -17 -7 -20 -50 -20 -43 0 -50
3 -50 20 0 17 7 20 50 20 43 0 50 -3 50 -20z m-2320 -45 c0 -11 -11 -15 -39
-15 -44 0 -64 16 -29 23 49 9 68 7 68 -8z m3117 -181 c-3 -3 -12 -4 -19 -1 -8
3 -5 6 6 6 11 1 17 -2 13 -5z m34 -21 c13 -16 12 -17 -3 -4 -17 13 -22 21 -14
21 2 0 10 -8 17 -17z m576 -30 c-3 -10 -5 -2 -5 17 0 19 2 27 5 18 2 -10 2
-26 0 -35z m-560 -30 c-3 -10 -5 -4 -5 12 0 17 2 24 5 18 2 -7 2 -21 0 -30z
m534 -26 l-24 -22 19 27 c10 14 21 24 23 22 3 -3 -6 -15 -18 -27z m-541 -6 c0
-5 -9 -19 -20 -32 l-20 -24 17 32 c19 34 23 39 23 24z m451 -8 c13 -16 12 -17
-3 -4 -17 13 -22 21 -14 21 2 0 10 -8 17 -17z m-581 -38 c14 -19 14 -19 -2 -6
-10 7 -18 18 -18 24 0 6 1 8 3 6 1 -2 9 -13 17 -24z m53 -22 c-7 -2 -19 -2
-25 0 -7 3 -2 5 12 5 14 0 19 -2 13 -5z"/>
<path d="M1500 3230 c-209 -8 -226 -11 -322 -62 -67 -35 -295 -245 -281 -258
14 -13 202 -72 211 -66 5 3 12 23 15 44 10 59 62 235 78 260 8 12 20 20 29 17
8 -3 38 3 65 12 37 12 102 17 255 20 228 4 250 7 250 28 0 12 -12 15 -52 13
-29 -1 -141 -5 -248 -8z"/>
<path d="M1192 3018 c-39 -133 -50 -183 -42 -192 5 -5 49 -5 104 0 l95 9 -68
128 -68 128 -21 -73z"/>
<path d="M4822 2464 c-28 -19 -52 -66 -51 -96 1 -18 3 -15 9 9 19 81 75 109
121 61 l21 -23 -11 22 c-11 22 -40 43 -58 43 -5 0 -19 -7 -31 -16z"/>
<path d="M4771 2300 c-1 -33 33 -88 63 -101 28 -13 60 0 77 34 l12 22 -25 -22
c-13 -13 -34 -23 -46 -23 -26 0 -61 36 -68 70 -9 42 -12 46 -13 20z"/>
<path d="M516 2427 c-12 -9 -21 -30 -23 -56 -3 -34 2 -49 28 -86 19 -26 44
-48 58 -52 14 -3 34 -11 44 -18 9 -7 28 -10 41 -8 22 5 23 7 14 56 -5 28 -19
69 -31 91 l-21 41 -12 -50 c-7 -27 -13 -59 -13 -71 -1 -12 -8 -21 -17 -21 -17
0 -17 11 -1 162 3 25 -39 32 -67 12z"/>
<path d="M466 2265 c-8 -21 -6 -123 3 -153 6 -23 7 -23 39 17 l32 40 -31 53
c-38 65 -35 62 -43 43z"/>
<path d="M535 2230 c-4 -6 -3 -16 3 -22 6 -6 12 -6 17 2 4 6 3 16 -3 22 -6 6
-12 6 -17 -2z"/>
<path d="M560 2189 c0 -5 5 -7 10 -4 6 3 10 -2 10 -11 0 -10 -3 -15 -6 -11 -8
8 -44 -25 -38 -35 8 -12 24 -10 24 3 0 7 7 17 17 24 9 7 14 19 10 29 -7 18
-27 22 -27 5z"/>
<path d="M607 2173 c-12 -11 -8 -23 8 -23 8 0 15 7 15 15 0 16 -12 20 -23 8z"/>
<path d="M615 2129 c-4 -5 -14 -8 -23 -7 -10 2 -17 -4 -17 -12 0 -8 7 -15 15
-15 11 0 17 -17 22 -59 10 -78 23 -90 43 -42 14 32 37 129 32 132 -13 8 -68
11 -72 3z"/>
<path d="M521 2065 c-17 -20 -31 -38 -31 -41 0 -11 23 -50 43 -71 24 -27 63
-32 53 -7 -3 9 -9 47 -12 85 -4 38 -10 69 -14 69 -5 0 -22 -16 -39 -35z"/>
<path d="M2614 2271 c-49 -22 -64 -41 -33 -41 21 0 21 -1 4 -26 -14 -22 -15
-30 -4 -50 13 -25 127 -119 134 -112 3 3 12 42 20 89 8 46 19 98 24 116 8 27
7 32 -12 37 -41 11 -92 6 -133 -13z"/>
<path d="M2821 2175 c-12 -30 -21 -75 -21 -99 0 -60 22 -77 91 -74 l54 3 -2
37 c-3 47 -44 136 -77 167 l-24 23 -21 -57z"/>
<path d="M2525 2046 c-8 -58 0 -152 14 -174 5 -9 24 1 67 34 32 25 60 49 62
53 1 3 -29 37 -67 75 l-69 69 -7 -57z"/>
<path d="M2740 2045 c0 -8 9 -15 20 -15 11 0 20 7 20 15 0 8 -9 15 -20 15 -11
0 -20 -7 -20 -15z"/>
<path d="M2667 2033 c-14 -13 -6 -33 13 -33 13 0 20 7 20 20 0 19 -20 27 -33
13z"/>
<path d="M2711 1986 c-17 -20 -2 -48 23 -44 24 3 34 37 14 49 -18 12 -24 11
-37 -5z m39 -21 c0 -8 -7 -15 -15 -15 -8 0 -15 7 -15 15 0 8 7 15 15 15 8 0
15 -7 15 -15z"/>
<path d="M2803 1964 c-8 -21 13 -42 28 -27 13 13 5 43 -11 43 -6 0 -13 -7 -17
-16z"/>
<path d="M2665 1930 c-4 -7 -3 -16 3 -22 14 -14 45 -2 40 15 -6 16 -34 21 -43
7z"/>
<path d="M2804 1910 c-15 -15 2 -122 27 -172 l22 -42 28 34 c36 43 60 93 66
140 l5 37 -47 6 c-66 10 -89 9 -101 -3z"/>
<path d="M2737 1896 c-7 -18 1 -26 25 -26 13 0 18 6 16 17 -4 22 -34 29 -41 9z"/>
<path d="M2670 1862 c-25 -16 -56 -41 -69 -55 l-23 -26 28 -36 c32 -42 90 -75
133 -75 l29 0 -13 48 c-8 26 -20 75 -27 110 l-13 63 -45 -29z"/>
<path d="M3451 2284 c0 -11 3 -14 6 -6 3 7 2 16 -1 19 -3 4 -6 -2 -5 -13z"/>
<path d="M3223 2283 c9 -2 25 -2 35 0 9 3 1 5 -18 5 -19 0 -27 -2 -17 -5z"/>
<path d="M2762 3218 c2 -13 7 -29 12 -37 5 -7 -4 -4 -20 7 -16 11 -44 23 -61
27 -35 7 -40 -2 -27 -51 8 -28 59 -40 89 -20 21 14 22 12 37 -51 l16 -65 -43
4 c-61 7 -65 2 -51 -61 l12 -54 274 2 c151 1 276 4 278 6 5 5 -248 255 -290
285 -38 28 -47 30 -135 30 -91 0 -94 -1 -91 -22z"/>
<path d="M3765 2830 c17 -4 41 -8 55 -8 22 0 22 1 -5 8 -16 4 -41 8 -55 8 -22
0 -22 -1 5 -8z"/>
<path d="M50 2482 c0 -26 27 -49 41 -35 17 17 6 48 -19 51 -16 3 -22 -2 -22
-16z"/>
<path d="M3913 2300 c0 -25 2 -35 4 -22 2 12 2 32 0 45 -2 12 -4 2 -4 -23z"/>
</g>
</svg>
