<?xml version="1.0" encoding="UTF-8"?>
<!DOCTYPE svg PUBLIC "-//W3C//DTD SVG 1.1//EN" "http://www.w3.org/Graphics/SVG/1.1/DTD/svg11.dtd">
<svg xmlns="http://www.w3.org/2000/svg" version="1.1" width="249px" height="116px" style="shape-rendering:geometricPrecision; text-rendering:geometricPrecision; image-rendering:optimizeQuality; fill-rule:evenodd; clip-rule:evenodd" xmlns:xlink="http://www.w3.org/1999/xlink">
<g><path style="opacity:0.913" fill="#fbe133" d="M 96.5,6.5 C 101.447,5.62758 105.613,6.96091 109,10.5C 110.212,17.7919 107.045,21.1252 99.5,20.5C 99.5751,23.2062 99.9084,25.8728 100.5,28.5C 97.9885,28.838 95.6552,28.838 93.5,28.5C 91.8346,22.5056 90.1679,16.5056 88.5,10.5C 88.8333,9.83333 89.1667,9.16667 89.5,8.5C 91.9823,7.93294 94.3157,7.26627 96.5,6.5 Z M 97.5,11.5 C 100.95,10.7564 102.616,12.0897 102.5,15.5C 101.07,15.4208 99.7362,15.7542 98.5,16.5C 96.5764,15.0347 96.2431,13.368 97.5,11.5 Z"/></g>
<g><path style="opacity:0.873" fill="#fbe133" d="M 115.5,11.5 C 119.833,12.8333 124.167,12.8333 128.5,11.5C 128.579,12.9305 128.246,14.2638 127.5,15.5C 125.659,16.2304 123.825,16.8971 122,17.5C 122.083,20.1194 122.25,22.786 122.5,25.5C 120.167,25.5 117.833,25.5 115.5,25.5C 115.5,20.8333 115.5,16.1667 115.5,11.5 Z"/></g>
<g><path style="opacity:0.876" fill="#fbe133" d="M 137.5,11.5 C 141.41,11.2628 145.077,12.0961 148.5,14C 150.113,16.2276 150.78,18.7276 150.5,21.5C 147.402,21.4125 147.068,21.9125 149.5,23C 143.601,27.7055 137.768,27.5388 132,22.5C 131.333,20.1667 131.333,17.8333 132,15.5C 133.812,14.0229 135.645,12.6896 137.5,11.5 Z M 139.5,16.5 C 140.849,15.2035 142.182,15.3702 143.5,17C 142.072,17.5791 140.738,17.4124 139.5,16.5 Z M 138.5,21.5 C 140.966,20.3659 143.633,20.1993 146.5,21C 143.872,22.6105 141.205,22.7772 138.5,21.5 Z"/></g>
<g><path style="opacity:0.798" fill="#fae134" d="M 180.5,11.5 C 185.098,11.8608 186.098,13.6941 183.5,17C 179.979,18.1153 178.146,16.9486 178,13.5C 178.995,12.9341 179.828,12.2674 180.5,11.5 Z"/></g>
<g><path style="opacity:0.883" fill="#fbe134" d="M 159.5,14.5 C 164.02,13.8917 167.687,15.225 170.5,18.5C 170.281,19.938 169.781,21.2713 169,22.5C 165.744,18.5385 162.577,18.5385 159.5,22.5C 161.494,25.5682 164.161,26.2348 167.5,24.5C 168.052,26.0026 168.052,27.6693 167.5,29.5C 160.358,30.8636 155.358,28.3636 152.5,22C 153.686,18.3175 156.019,15.8175 159.5,14.5 Z"/></g>
<g><path style="opacity:0.856" fill="#fbe133" d="M 175.5,18.5 C 177.989,18.2978 180.323,18.7978 182.5,20C 180.372,23.7546 178.372,27.5879 176.5,31.5C 174.046,32.8865 172.046,32.3865 170.5,30C 172.316,26.2036 173.983,22.3702 175.5,18.5 Z"/></g>
<g><path style="opacity:0.872" fill="#fbe033" d="M 69.5,20.5 C 70.5,20.5 71.5,20.5 72.5,20.5C 71.795,23.2443 71.795,25.911 72.5,28.5C 75.1253,29.7639 77.7919,30.9305 80.5,32C 77.133,35.074 73.633,35.2407 70,32.5C 70.0667,36.8873 67.9,39.2206 63.5,39.5C 62.8153,36.8412 63.1486,34.1745 64.5,31.5C 61.5438,29.904 58.5438,28.404 55.5,27C 58.2368,24.7302 61.2368,24.2302 64.5,25.5C 66.1112,24.6798 66.7778,23.3464 66.5,21.5C 67.791,21.7373 68.791,21.404 69.5,20.5 Z"/></g>
<g><path style="opacity:0.876" fill="#fbe033" d="M 188.5,22.5 C 192.907,22.5651 196.24,24.3985 198.5,28C 197.387,29.3943 196.053,30.561 194.5,31.5C 195.746,35.6223 194.079,37.9556 189.5,38.5C 185.059,37.7225 181.726,35.3892 179.5,31.5C 182.964,28.6991 185.797,29.3657 188,33.5C 187.41,31.1857 186.243,29.0191 184.5,27C 185.117,24.7731 186.451,23.2731 188.5,22.5 Z"/></g>
<g><path style="opacity:0.845" fill="#fbe034" d="M 207.5,23.5 C 212.123,22.4082 213.956,24.0748 213,28.5C 211.132,29.6719 209.298,29.5053 207.5,28C 206.272,26.5098 206.272,25.0098 207.5,23.5 Z"/></g>
<g><path style="opacity:0.888" fill="#fefffe" d="M 127.5,29.5 C 133.871,29.4882 140.204,29.9882 146.5,31C 149.119,31.1515 151.453,31.9848 153.5,33.5C 148.987,38.3404 143.82,42.3404 138,45.5C 132.381,44.4869 126.881,43.1536 121.5,41.5C 122.986,37.1944 124.986,33.1944 127.5,29.5 Z"/></g>
<g><path style="opacity:0.885" fill="#fbe134" d="M 203.5,28.5 C 205.757,28.9617 207.757,29.9617 209.5,31.5C 206.236,35.6873 202.736,39.6873 199,43.5C 197.229,42.6959 195.729,41.5292 194.5,40C 197.738,36.2724 200.738,32.4391 203.5,28.5 Z"/></g>
<g><path style="opacity:0.89" fill="#fbe134" d="M 47.5,30.5 C 49.9892,30.2978 52.3225,30.7978 54.5,32C 57.206,34.3706 59.5394,37.0372 61.5,40C 56.99,42.5165 52.49,45.0165 48,47.5C 43.9079,46.6252 42.4079,44.2918 43.5,40.5C 41.8333,39.3333 40.1667,38.1667 38.5,37C 41.2485,34.3105 44.2485,32.1438 47.5,30.5 Z M 44.5,38.5 C 45.4056,36.0863 47.0722,35.253 49.5,36C 48.0899,37.3717 46.4233,38.205 44.5,38.5 Z M 51.5,38.5 C 52.8672,40.0927 52.5339,41.4261 50.5,42.5C 49.6919,42.1924 49.0253,41.6924 48.5,41C 49.9423,40.6232 50.9423,39.7899 51.5,38.5 Z"/></g>
<g><path style="opacity:0.548" fill="#fefffe" d="M 118.5,30.5 C 123.118,29.9748 124.118,31.3081 121.5,34.5C 119.712,33.7174 118.712,32.3841 118.5,30.5 Z"/></g>
<g><path style="opacity:0.637" fill="#fefffe" d="M 104.5,31.5 C 106.379,31.3932 106.712,31.8932 105.5,33C 84.8568,40.1349 69.1901,53.1349 58.5,72C 56.7412,72.7975 55.0745,72.6309 53.5,71.5C 65.8512,52.1389 82.8512,38.8055 104.5,31.5 Z"/></g>
<g><path style="opacity:0.91" fill="#fefffe" d="M 170.5,54.5 C 166.409,55.085 162.409,56.085 158.5,57.5C 152.97,53.471 147.303,49.6376 141.5,46C 145.833,42.3333 150.167,38.6667 154.5,35C 165.779,36.3071 175.113,41.3071 182.5,50C 178.285,51.2341 174.285,52.7341 170.5,54.5 Z"/></g>
<g><path style="opacity:0.901" fill="#fbe033" d="M 210.5,36.5 C 216.328,35.4973 221.161,37.164 225,41.5C 225.959,48.2146 222.959,51.5479 216,51.5C 207.876,51.069 204.876,47.069 207,39.5C 208.145,38.3636 209.312,37.3636 210.5,36.5 Z M 213.5,41.5 C 215.199,41.3398 216.866,41.5065 218.5,42C 219.711,43.1131 219.711,44.2798 218.5,45.5C 215.707,46.9547 213.374,46.4547 211.5,44C 212.381,43.2917 213.047,42.4584 213.5,41.5 Z"/></g>
<g><path style="opacity:0.914" fill="#fbe133" d="M 21.5,36.5 C 29.6306,40.3988 37.6306,44.5654 45.5,49C 43.9825,50.6851 42.3159,52.1851 40.5,53.5C 37.439,51.1312 34.1057,49.6312 30.5,49C 31.5,51.3333 32.5,53.6667 33.5,56C 22.8393,54.8316 21.506,56.9982 29.5,62.5C 28.1851,64.3159 26.6851,65.9825 25,67.5C 18.5311,62.0323 12.3644,56.199 6.5,50C 12.3553,49.9564 18.1887,50.4564 24,51.5C 24.5,51.1667 25,50.8333 25.5,50.5C 23.5512,45.9896 22.2179,41.3229 21.5,36.5 Z"/></g>
<g><path style="opacity:0.885" fill="#fbe133" d="M 231.5,47.5 C 234.833,47.5 236.5,49.1667 236.5,52.5C 241.013,52.9906 242.68,55.3239 241.5,59.5C 237.844,63.3286 233.51,65.4953 228.5,66C 227.707,64.9148 227.04,63.7481 226.5,62.5C 229.72,60.3971 232.72,58.0638 235.5,55.5C 234.277,54.3861 232.944,54.2195 231.5,55C 228.958,56.7698 226.291,58.2698 223.5,59.5C 221.603,59.2718 220.27,58.2718 219.5,56.5C 223.53,53.491 227.53,50.491 231.5,47.5 Z"/></g>
<g><path style="opacity:0.937" fill="#fefffe" d="M 170.5,54.5 C 174.881,53.5294 179.215,52.6961 183.5,52C 189.392,57.617 192.725,64.4503 193.5,72.5C 183.494,72.6665 173.494,72.4998 163.5,72C 161.102,67.6808 160.102,63.1808 160.5,58.5C 164.013,57.3355 167.346,56.0022 170.5,54.5 Z"/></g>
<g><path style="opacity:0.809" fill="#fefffe" d="M 138.5,56.5 C 139.552,56.3505 140.552,56.5172 141.5,57C 133.5,61.3333 125.5,65.6667 117.5,70C 114.623,72.3873 111.956,75.054 109.5,78C 105.981,78.3773 102.481,78.8773 99,79.5C 95.8358,79.2334 94.8358,77.5667 96,74.5C 98.6432,73.0237 100.81,71.0237 102.5,68.5C 105.978,66.4603 109.645,65.9603 113.5,67C 121.974,63.5722 130.308,60.0722 138.5,56.5 Z"/></g>
<g><path style="opacity:0.814" fill="#fbe033" d="M 165.5,83.5 C 167.167,83.5 168.833,83.5 170.5,83.5C 170.187,86.2469 170.52,88.9135 171.5,91.5C 173.496,90.3904 175.329,90.7237 177,92.5C 177.499,96.1516 177.665,99.8183 177.5,103.5C 175.856,103.714 174.356,103.38 173,102.5C 171.65,92.1321 170.816,92.4654 170.5,103.5C 168.833,103.5 167.167,103.5 165.5,103.5C 165.5,96.8333 165.5,90.1667 165.5,83.5 Z"/></g>
<g><path style="opacity:0.722" fill="#fbe134" d="M 207.5,83.5 C 209.167,83.5 210.833,83.5 212.5,83.5C 212.5,90.1667 212.5,96.8333 212.5,103.5C 210.833,103.5 209.167,103.5 207.5,103.5C 207.5,96.8333 207.5,90.1667 207.5,83.5 Z"/></g>
<g><path style="opacity:0.866" fill="#fbe133" d="M 50.5,85.5 C 55.0408,85.0522 59.3741,85.7189 63.5,87.5C 67.4613,91.9639 67.4613,96.4639 63.5,101C 59.4136,103.053 55.0803,103.887 50.5,103.5C 50.5,97.5 50.5,91.5 50.5,85.5 Z M 55.5,89.5 C 61.2874,90.4176 62.6207,93.251 59.5,98C 58.2068,98.49 56.8734,98.6567 55.5,98.5C 55.5,95.5 55.5,92.5 55.5,89.5 Z"/></g>
<g><path style="opacity:0.801" fill="#fbe134" d="M 77.5,85.5 C 79.1667,85.5 80.8333,85.5 82.5,85.5C 82.5,86.8333 82.5,88.1667 82.5,89.5C 80.8333,89.5 79.1667,89.5 77.5,89.5C 77.5,88.1667 77.5,86.8333 77.5,85.5 Z"/></g>
<g><path style="opacity:0.824" fill="#fae134" d="M 97.5,85.5 C 98.8333,85.5 100.167,85.5 101.5,85.5C 101.5,86.8333 101.5,88.1667 101.5,89.5C 97.56,90.234 96.2266,88.9007 97.5,85.5 Z"/></g>
<g><path style="opacity:0.869" fill="#fbe134" d="M 141.5,85.5 C 144.187,85.3359 146.854,85.5026 149.5,86C 153.666,88.1792 153.499,90.0126 149,91.5C 147.867,89.7888 146.367,89.2888 144.5,90C 147.305,91.4789 149.805,93.3122 152,95.5C 152.401,102.083 149.235,104.583 142.5,103C 140.365,102.241 139.032,100.741 138.5,98.5C 138.887,97.2801 139.72,96.6135 141,96.5C 142.626,97.2887 144.126,98.2887 145.5,99.5C 146.308,99.1924 146.975,98.6924 147.5,98C 144.734,96.5331 142.234,94.6998 140,92.5C 139.167,89.829 139.667,87.4957 141.5,85.5 Z"/></g>
<g><path style="opacity:0.867" fill="#fbe034" d="M 109.5,90.5 C 111.993,90.3291 113.826,91.3291 115,93.5C 115.498,96.8168 115.665,100.15 115.5,103.5C 113.833,103.5 112.167,103.5 110.5,103.5C 110.184,92.4654 109.35,92.1321 108,102.5C 106.644,103.38 105.144,103.714 103.5,103.5C 103.5,99.5 103.5,95.5 103.5,91.5C 105.735,91.7947 107.735,91.4614 109.5,90.5 Z"/></g>
<g><path style="opacity:0.903" fill="#fbe034" d="M 121.5,90.5 C 124.096,91.2653 126.763,91.5987 129.5,91.5C 129.211,95.1064 129.544,98.6064 130.5,102C 129.327,108.15 125.66,110.15 119.5,108C 114.855,103.997 115.522,102.663 121.5,104C 122.819,105.628 124.152,105.461 125.5,103.5C 118.636,104.139 115.803,101.139 117,94.5C 117.907,92.3909 119.407,91.0576 121.5,90.5 Z M 122.5,94.5 C 126.173,95.7076 126.34,97.3743 123,99.5C 121.212,97.9769 121.045,96.3102 122.5,94.5 Z"/></g>
<g><path style="opacity:0.871" fill="#fbe034" d="M 158.5,90.5 C 160.5,90.8333 162.5,91.1667 164.5,91.5C 164.66,93.1992 164.494,94.8659 164,96.5C 160.05,93.3925 158.217,94.3925 158.5,99.5C 160.262,99.6427 161.929,99.3094 163.5,98.5C 164.864,101.749 163.698,103.415 160,103.5C 154.392,102.893 152.392,99.8934 154,94.5C 154.907,92.3909 156.407,91.0576 158.5,90.5 Z"/></g>
<g><path style="opacity:0.871" fill="#fbe134" d="M 184.5,90.5 C 188.562,90.7241 191.395,92.7241 193,96.5C 196.337,89.7261 200.67,89.0594 206,94.5C 206.268,102.799 202.435,105.299 194.5,102C 193.773,100.601 193.273,99.1012 193,97.5C 190.552,103.466 186.385,104.966 180.5,102C 177.453,96.6005 178.787,92.7672 184.5,90.5 Z M 184.5,94.5 C 187.956,95.5362 188.29,97.2029 185.5,99.5C 183.296,98.218 182.962,96.5514 184.5,94.5 Z M 198.5,94.5 C 201.956,95.5362 202.29,97.2029 199.5,99.5C 197.296,98.218 196.962,96.5514 198.5,94.5 Z"/></g>
<g><path style="opacity:0.779" fill="#fbe133" d="M 73.5,90.5 C 76.3892,90.999 77.0558,92.499 75.5,95C 74.552,95.4828 73.552,95.6495 72.5,95.5C 72.5,98.1667 72.5,100.833 72.5,103.5C 70.8333,103.5 69.1667,103.5 67.5,103.5C 67.5,99.5 67.5,95.5 67.5,91.5C 69.7354,91.7947 71.7354,91.4614 73.5,90.5 Z"/></g>
<g><path style="opacity:0.852" fill="#fbe033" d="M 77.5,91.5 C 80.8499,91.335 84.1832,91.5017 87.5,92C 89.2125,96.4387 90.5458,96.4387 91.5,92C 94.8168,91.5017 98.1501,91.335 101.5,91.5C 101.5,95.5 101.5,99.5 101.5,103.5C 99.8561,103.714 98.3561,103.38 97,102.5C 96.6667,99.1667 96.3333,95.8333 96,92.5C 94,96.5 92,100.5 90,104.5C 87.162,100.828 84.8287,96.8282 83,92.5C 82.5014,96.1516 82.3347,99.8183 82.5,103.5C 80.8333,103.5 79.1667,103.5 77.5,103.5C 77.5,99.5 77.5,95.5 77.5,91.5 Z"/></g>
</svg>
